<svg xmlns="http://www.w3.org/2000/svg" viewBox="0 0 335.43 216.07"><defs><style>.cls-1{isolation:isolate;}.cls-2{fill:#e8dedc;opacity:0.66;}.cls-11,.cls-18,.cls-2,.cls-21,.cls-6,.cls-8,.cls-9{mix-blend-mode:multiply;}.cls-3{fill:#827cbb;}.cls-4{fill:#5c53a2;}.cls-5{fill:#6f67bb;}.cls-11,.cls-6{fill:#b89692;}.cls-18,.cls-6,.cls-8{opacity:0.5;}.cls-7{fill:#faebd9;}.cls-9{fill:#88adc7;opacity:0.28;}.cls-10{fill:#ed604e;}.cls-12{fill:#b04434;}.cls-13{fill:#d84c3a;}.cls-14{fill:#ed7566;}.cls-15{fill:#ffa498;}.cls-16{fill:#f1e0cc;}.cls-17{fill:#5f9ca4;}.cls-18{fill:#93bbd7;}.cls-19{fill:#bfd8dc;}.cls-20{fill:#49848c;}.cls-21{fill:#d8e2ec;}</style></defs><g class="cls-1"><g id="Camada_2" data-name="Camada 2"><g id="OBJECTS"><polygon class="cls-2" points="237.92 202.09 197.65 216.07 0 178.64 88.12 147.14 237.92 202.09"/><polygon class="cls-3" points="50.3 104.12 155.74 61 335.43 94.91 236.65 139.86 50.3 104.12"/><polygon class="cls-4" points="91.74 100.59 156.84 72.39 294.91 98.38 232.95 127.46 91.74 100.59"/><path class="cls-5" d="M335.43,94.91l-.19,3.92L332,100.6,333.23,153l1.7-.77-.11,3.71-96.91,46.17s-10.83-3-11.47-11.52c-.89-12.13,10.21-50.71,10.21-50.71Z"/><polygon class="cls-6" points="50.3 104.12 155.74 61 311.29 102.68 198.48 132.54 50.3 104.12"/><path class="cls-4" d="M237.92,202.09l-25.63-4.74-5.87-1.07L73.74,171.77l-5.83-1.07-17.39-3.21s-5.3-6.78-5.3-30.8c0-26.67,5.07-32.57,5.07-32.57l19.17,3.68L75,108.87l132,25.32,5.59,1.06,24,4.61a117.29,117.29,0,0,0-4.19,31.55A94.89,94.89,0,0,0,237.92,202.09Z"/><path class="cls-7" d="M333.23,153l-91.94,43.89s-3.85-9.53-4-27.94c-.13-19.23,3.24-26.27,3.24-26.27L332,100.6Z"/><path class="cls-6" d="M238.49,150.78c.47-2.28,2.06-8.12,2.06-8.12L332,100.6l.21,7.16S263.3,141.11,238.49,150.78Z"/><path class="cls-3" d="M212.29,197.35l-5.87-1.07c-3.8-28.74-1.46-50.43.63-62.09l5.59,1.06C210.63,146.76,208.3,168.67,212.29,197.35Z"/><path class="cls-3" d="M73.74,171.77c-4.95-30.29-1.68-52.64,1.29-62.9l-5.57-1.07c-3.67,10.38-6.15,32.06-1.55,62.9Z"/><g class="cls-8"><path class="cls-9" d="M49.23,165a12.12,12.12,0,0,0,1.29,2.46l17.39,3.21,5.83,1.07,132.68,24.51,5.87,1.07,25.63,4.74s-.3-.76-.75-2.14C237.17,200,51.28,165.24,49.23,165Z"/></g><polygon class="cls-10" points="320.15 64.99 236.84 32.05 61.25 65.19 138.06 99.91 320.15 64.99"/><polygon class="cls-11" points="291 53.46 236.84 32.05 61.25 65.19 107.44 86.06 214.26 89.1 291 53.46"/><path class="cls-12" d="M61.25,65.19,61.44,69l3.2,1.73L63.41,96.12l-1.66-.76L61.86,99l75,35.91s3.14-1.52,3.76-9.9c.88-11.85-2.53-25.09-2.53-25.09Z"/><polygon class="cls-13" points="138.06 99.91 136.83 134.9 319.93 101.09 320.15 64.99 138.06 99.91"/><polygon class="cls-14" points="175.46 92.66 167.06 94.27 167.06 129.2 175.46 127.65 175.46 92.66"/><polygon class="cls-14" points="190.7 89.74 180.35 91.72 180.35 126.74 190.7 124.83 190.7 89.74"/><polygon class="cls-15" points="97.57 58.22 89.17 59.83 167.06 94.1 175.46 92.55 97.57 58.22"/><polygon class="cls-15" points="112.81 55.3 102.47 57.28 180.35 91.65 190.7 89.74 112.81 55.3"/><polygon class="cls-15" points="197.87 39.06 189.47 40.67 267.36 74.94 275.76 73.39 197.87 39.06"/><polygon class="cls-15" points="213.12 36.14 202.77 38.12 280.65 72.49 291 70.58 213.12 36.14"/><polygon class="cls-14" points="291 70.58 282.6 72.19 282.6 107.88 291 106.33 291 70.58"/><polygon class="cls-14" points="278.11 73.02 267.76 75.01 267.76 110.8 278.11 108.89 278.11 73.02"/><polygon class="cls-16" points="63.41 96.12 133.53 129.8 134.25 102.65 64.64 70.75 63.41 96.12"/><polygon class="cls-6" points="64.18 80.25 133.99 112.49 134.25 102.65 64.64 70.75 64.18 80.25"/><polygon class="cls-17" points="42.08 36.36 120.33 0 285.24 21.79 213.1 58.48 42.08 36.36"/><polygon class="cls-18" points="53.01 31.42 120.33 0 285.24 21.79 219.37 55.3 53.01 31.42"/><path class="cls-19" d="M285.24,21.79l-.17,3.62-3,1.79,1.16,21.58,1.56-.8-.1,3.42L214.26,89.1s-9.94-2.13-10.52-10c-.83-11.08,9.36-20.65,9.36-20.65Z"/><path class="cls-20" d="M213.1,58.48s-4.55,2.52-4.43,16.64a20.52,20.52,0,0,0,5.59,14l-172-22s-5.35-5.26-5.44-15.13c-.09-10.19,5.23-15.58,5.23-15.58Z"/><polygon class="cls-17" points="81.18 52.8 76.16 57.25 81.18 62.96 86.2 58.5 81.18 52.8"/><polygon class="cls-17" points="96.54 54.71 91.53 59.17 96.54 64.87 101.56 60.42 96.54 54.71"/><polygon class="cls-17" points="111.91 56.62 106.89 61.08 111.91 66.79 116.92 62.33 111.91 56.62"/><polygon class="cls-17" points="127.27 58.53 122.25 62.99 127.27 68.7 132.29 64.24 127.27 58.53"/><polygon class="cls-17" points="142.63 60.45 137.62 64.91 142.63 70.61 147.65 66.16 142.63 60.45"/><polygon class="cls-17" points="158 62.36 152.98 66.82 158 72.53 163.01 68.07 158 62.36"/><polygon class="cls-16" points="283.22 48.78 217.36 84.14 216.69 60.86 282.06 27.2 283.22 48.78"/><polygon class="cls-21" points="283.22 32.74 217.07 74.1 216.69 60.86 282.06 27.2 283.22 32.74"/></g></g></g></svg>